<?xml version="1.0" encoding="iso-8859-1"?>
<!-- Generator: Adobe Illustrator 19.0.0, SVG Export Plug-In . SVG Version: 6.00 Build 0)  -->
<svg version="1.1" id="Layer_1" xmlns="http://www.w3.org/2000/svg" xmlns:xlink="http://www.w3.org/1999/xlink" x="0px" y="0px"
	 viewBox="0 0 512 512" style="enable-background:new 0 0 512 512;" xml:space="preserve">
<g>
	<path style="fill:#32e0c4;" d="M512,308.471V203.529c0-0.274-0.221-0.494-0.494-0.494h-5.711c-19.88,0-37.8-11.979-45.4-30.349
		l-0.962-2.33c-7.601-18.361-3.39-39.495,10.664-53.539l4.025-4.025c0.194-0.194,0.194-0.512,0-0.706l-74.205-74.205
		c-0.194-0.194-0.503-0.194-0.697,0l-4.034,4.034c-14.045,14.045-35.178,18.255-53.53,10.664l-2.339-0.971
		c-18.37-7.592-30.349-25.521-30.349-45.4V0.494c0-0.274-0.221-0.494-0.494-0.494H203.529c-0.274,0-0.494,0.221-0.494,0.494v5.711
		c0,19.88-11.979,37.809-30.349,45.4l-2.339,0.971c-18.353,7.592-39.486,3.381-53.53-10.664l-4.034-4.034
		c-0.194-0.194-0.503-0.194-0.697,0l-74.205,74.205c-0.194,0.194-0.194,0.512,0,0.706l4.025,4.025
		c14.054,14.045,18.264,35.178,10.664,53.539l-0.962,2.33c-7.601,18.37-25.521,30.349-45.4,30.349H0.494
		c-0.274,0-0.494,0.221-0.494,0.494v104.942c0,0.274,0.221,0.494,0.494,0.494h5.711c19.88,0,37.8,11.988,45.4,30.358l0.468,1.121
		c7.892,19.094,3.522,41.057-11.087,55.667l-3.107,3.107c-0.194,0.194-0.194,0.503,0,0.697l74.205,74.205
		c0.194,0.194,0.503,0.194,0.697,0l3.107-3.099c14.61-14.61,36.573-18.988,55.667-11.096l0,0
		c19.05,7.883,31.479,26.465,31.479,47.086v4.493c0,0.274,0.221,0.494,0.494,0.494h104.942c0.274,0,0.494-0.221,0.494-0.494v-4.493
		c0-20.621,12.429-39.203,31.479-47.086l0,0c19.094-7.892,41.057-3.513,55.667,11.096l3.107,3.099c0.194,0.194,0.503,0.194,0.697,0
		l74.205-74.205c0.194-0.194,0.194-0.503,0-0.697l-4.025-4.034c-14.053-14.045-18.264-35.169-10.664-53.53l0.962-2.331
		c7.601-18.37,25.521-30.358,45.4-30.358h5.711C511.779,308.966,512,308.745,512,308.471"/>
	<path style="fill:#222831;" d="M414.897,256.002c0-87.755-71.141-158.897-158.897-158.897S97.103,168.247,97.103,256.002
		S168.245,414.898,256,414.898S414.897,343.757,414.897,256.002"/>
	<g>
		<path style="fill:#32e0c4;" d="M256,370.76c-4.882,0-8.828-3.955-8.828-8.828V150.071c0-4.873,3.946-8.828,8.828-8.828
			c4.882,0,8.828,3.955,8.828,8.828v211.862C264.828,366.806,260.882,370.76,256,370.76"/>
		<path style="fill:#32e0c4;" d="M256,353.105c-21.813,0-40.413-7.645-51.041-20.974c-3.037-3.822-2.419-9.375,1.404-12.412
			c3.814-3.046,9.366-2.41,12.403,1.395c7.15,8.978,21.071,14.336,37.235,14.336c21.222,0,44.138-13.497,44.138-35.31
			c0-21.124-22.819-35.31-44.138-35.31c-29.714,0-61.793-20.25-61.793-52.966s32.079-52.966,61.793-52.966
			c22.131,0,40.263,7.45,51.041,20.974c3.037,3.822,2.419,9.375-1.404,12.412c-3.814,3.046-9.366,2.401-12.403-1.395
			c-7.362-9.242-20.586-14.336-37.235-14.336c-21.319,0-44.138,14.186-44.138,35.31c0,21.813,22.916,35.31,44.138,35.31
			c29.714,0,61.793,20.25,61.793,52.966S285.714,353.105,256,353.105"/>
		<path style="fill:#32e0c4;" d="M300.138,220.691c-4.882,0-8.828-3.955-8.828-8.828v-52.966c0-4.873,3.946-8.828,8.828-8.828
			c4.882,0,8.828,3.955,8.828,8.828v52.966C308.966,216.737,305.02,220.691,300.138,220.691"/>
		<path style="fill:#32e0c4;" d="M211.862,361.933c-4.882,0-8.828-3.955-8.828-8.828V300.14c0-4.873,3.946-8.828,8.828-8.828
			s8.828,3.955,8.828,8.828v52.966C220.69,357.978,216.744,361.933,211.862,361.933"/>
	</g>
</g>
<g>
</g>
<g>
</g>
<g>
</g>
<g>
</g>
<g>
</g>
<g>
</g>
<g>
</g>
<g>
</g>
<g>
</g>
<g>
</g>
<g>
</g>
<g>
</g>
<g>
</g>
<g>
</g>
<g>
</g>
</svg>
